<?xml version="1.0" encoding="UTF-8"?>
<svg xmlns="http://www.w3.org/2000/svg" width="1024" height="1024" viewBox="0 0 1024 1024" role="img" aria-label="Call of Silence × YouSeeBIGGIRL - EYAir">
  <defs>
    <linearGradient id="bg-track-001" x1="0%" y1="0%" x2="100%" y2="100%">
      <stop offset="0%" stop-color="#151624"/>
      <stop offset="55%" stop-color="#2f4055"/>
      <stop offset="100%" stop-color="#567a8f"/>
    </linearGradient>
    <radialGradient id="light-track-001" cx="34%" cy="22%" r="68%">
      <stop offset="0%" stop-color="#b8f3ff" stop-opacity="0.72"/>
      <stop offset="56%" stop-color="#b8f3ff" stop-opacity="0.12"/>
      <stop offset="100%" stop-color="#b8f3ff" stop-opacity="0"/>
    </radialGradient>
    <filter id="grain-track-001" x="-20%" y="-20%" width="140%" height="140%">
      <feTurbulence type="fractalNoise" baseFrequency="0.76" numOctaves="3" stitchTiles="stitch"/>
      <feColorMatrix type="saturate" values="0"/>
      <feComponentTransfer>
        <feFuncA type="table" tableValues="0 0.18"/>
      </feComponentTransfer>
    </filter>
    <style>
      .cover-title,
      .cover-artist,
      .cover-code,
      .cover-symbol-text {
        font-family: "Inter", "Noto Sans SC", "Microsoft YaHei", "PingFang SC", Arial, sans-serif;
        letter-spacing: 0;
      }
      .cover-title { fill: #f8fbff; font-size: 68px; font-weight: 800; }
      .cover-artist { fill: #f8fbff; font-size: 32px; font-weight: 600; opacity: 0.78; }
      .cover-code { fill: #f8fbff; font-size: 24px; font-weight: 700; opacity: 0.5; }
      .cover-symbol { opacity: 0.92; }
      .cover-symbol-text { fill: #f8fbff; font-weight: 900; opacity: 0.9; }
    </style>
  </defs>
  <rect width="1024" height="1024" rx="84" fill="url(#bg-track-001)"/>
  <rect width="1024" height="1024" rx="84" fill="url(#light-track-001)"/>
  <rect width="1024" height="1024" rx="84" filter="url(#grain-track-001)" opacity="0.42"/>
  <circle cx="283" cy="229" r="210" fill="#b8f3ff" opacity="0.17"/>
  <circle cx="747" cy="651" r="280" fill="#f7a1c4" opacity="0.13"/>
  
    <g class="cover-pattern" opacity="0.13" transform="rotate(-27 512 512)">
      <rect x="-220" y="-60" width="2" height="1160" rx="1" fill="#f8fbff"/>
<rect x="-90" y="-60" width="2" height="1160" rx="1" fill="#f8fbff"/>
<rect x="40" y="-60" width="2" height="1160" rx="1" fill="#f8fbff"/>
<rect x="170" y="-60" width="2" height="1160" rx="1" fill="#f8fbff"/>
<rect x="300" y="-60" width="2" height="1160" rx="1" fill="#f8fbff"/>
<rect x="430" y="-60" width="2" height="1160" rx="1" fill="#f8fbff"/>
<rect x="560" y="-60" width="2" height="1160" rx="1" fill="#f8fbff"/>
<rect x="690" y="-60" width="2" height="1160" rx="1" fill="#f8fbff"/>
<rect x="820" y="-60" width="2" height="1160" rx="1" fill="#f8fbff"/>
<rect x="950" y="-60" width="2" height="1160" rx="1" fill="#f8fbff"/>
<rect x="1080" y="-60" width="2" height="1160" rx="1" fill="#f8fbff"/>
    </g>
  
  
        <g class="cover-symbol" fill="none" stroke-linecap="round">
          <path d="M256 512 C352 406 448 618 512 512 C576 406 672 618 768 512" stroke="#b8f3ff" stroke-width="18"/>
          <path d="M512 296 V728" stroke="#f7a1c4" stroke-width="10" opacity="0.72"/>
          <circle cx="512" cy="512" r="174" stroke="#f8fbff" stroke-width="2" opacity="0.24"/>
        </g>
      
  <rect x="44" y="44" width="936" height="936" rx="58" fill="none" stroke="#f8fbff" stroke-opacity="0.16" stroke-width="2"/>
  <text class="cover-title" x="72" y="746">Call of Silence ×</text>
<text class="cover-title" x="72" y="825">YouSeeBIGGIRL</text>
  <text class="cover-artist" x="72" y="900">EYAir</text>
  <text class="cover-code" x="72" y="936">Y181 MUSIC / 001</text>
</svg>
